<?xml version="1.0" encoding="utf-8"?>
<!-- Generator: Adobe Illustrator 21.1.0, SVG Export Plug-In . SVG Version: 6.00 Build 0)  -->
<svg version="1.1" id="レイヤー_1" xmlns="http://www.w3.org/2000/svg" xmlns:xlink="http://www.w3.org/1999/xlink" x="0px"
	 y="0px" viewBox="0 0 576 41" style="enable-background:new 0 0 576 41;" xml:space="preserve">
<style type="text/css">
	.st0{fill:#005BAB;}
	.st1{fill:#231815;}
	.st2{fill:none;}
</style>
<g>
	<path class="st0" d="M94.1,37.5c-0.1,0-0.3-0.1-0.4-0.2L83,19.7l-5.9,20.2c0,0.1-0.2,0.2-0.3,0.2H65.5c-0.1,0-0.2-0.1-0.2-0.2
		L77.2,2.1c0-0.1,0.2-0.2,0.3-0.2h4.3c0.1,0,0.3,0.1,0.4,0.2l14.5,22.6L111.3,2c0.1-0.1,0.2-0.2,0.4-0.2h4.2c0.1,0,0.3,0.1,0.3,0.2
		l11.9,37.8c0,0.1,0,0.2-0.2,0.2h-11.3c-0.1,0-0.3-0.1-0.3-0.2l-5.9-20.2L99.7,37.3c-0.1,0.1-0.2,0.2-0.4,0.2h-2.6H94.1z M65.8,18.7
		C65.8,18.7,65.8,18.7,65.8,18.7c0-0.1-0.1-0.2-0.2-0.2h-1.5H52.9H33.3c-1.7,0-3.1,1.4-3.1,3.1c0,1.7,1.4,3.1,3.1,3.1h0h19.2
		c-2.3,6-10,10.5-19.2,10.5c-11,0-19.9-6.3-19.9-14.2S22.4,6.8,33.3,6.8c6,0,11.4,1.9,15,4.9c0,0,0,0,0,0c0,0,0.1,0,0.1,0h13.2
		c0.1,0,0.2-0.1,0.2-0.2c0-0.1,0-0.1-0.1-0.2c0,0,0,0,0,0c-5.6-6-16.3-10-28.5-10C15.3,1.3,0.6,10.1,0.6,21s14.6,19.6,32.7,19.6
		S66,31.8,66,21C66,20.2,66,19.4,65.8,18.7 M192.8,21c0,10.9-14.6,19.6-32.7,19.6c-18.1,0-32.7-8.8-32.7-19.6s14.6-19.6,32.7-19.6
		C178.2,1.3,192.8,10.1,192.8,21 M180,21c0-7.8-8.9-14.2-19.9-14.2c-11,0-19.9,6.3-19.9,14.2s8.9,14.2,19.9,14.2
		C171.1,35.1,180,28.8,180,21"/>
	<path class="st1" d="M328.2,3.4c1.5,1.5,3.5,3.8,4.6,5.1L331,10c-1.1-1.3-3.2-3.8-4.6-5.1L328.2,3.4z M357.5,16.6
		c-5.3,0.1-11.1,2.4-15.6,6.1c0.4-5.7,0.6-12.9,0.7-14.3h-3.8c0.1,2.1-0.2,13.6-0.7,18.7l3.2,1.2c4.1-4.9,10.5-8.2,16.4-8.3
		c4.6-0.1,7.9,1.2,9.4,3.7c1.2,2,1.2,4.6-0.2,6.9c-4.2,7-15.3,5.8-22,4.3v3.5c12.3,2.5,21.2,0.4,25.1-6.1c2-3.3,2.1-7.3,0.2-10.3
		C368.8,19.9,365.4,16.4,357.5,16.6 M324.9,6.2L323,7.7c1.2,1.1,3.4,3.6,4.6,5.1l1.8-1.5C328.3,9.8,326.2,7.5,324.9,6.2 M238.7,26.7
		c0,3-1.3,5.9-3.7,8.2c-3.2,3.1-8.1,4.8-13.4,4.7v-3.4c4.5,0.1,8.5-1.3,11.1-3.8c1.7-1.6,2.6-3.6,2.6-5.7c0-3.1-1-5.6-2.9-7.3
		c-1.8-1.6-4.3-2.6-7.5-3c-0.8,10.9-5.4,18.6-13.2,21.8c-2.9,1.2-6,0.8-8.1-1c-2.5-2.1-3.4-5.6-2.4-9.7c1.2-5.4,5.5-9.9,11-12.4
		c0-0.1,0-0.3,0-0.4c0-1.5,0.2-3.1,0.3-4.6h-11.1V6.8h11.6c0.3-1.9,0.7-3.8,1.2-5.4h3.5c-0.5,1.7-1,3.5-1.3,5.4h18.9V10h-19.4
		c-0.1,1.2-0.2,2.5-0.3,3.7c2.6-0.8,5.5-1.1,8.3-0.9C233.3,13.5,238.7,18.6,238.7,26.7 M214.9,32.2c-1.8-4.5-2.5-9.3-2.7-13.4
		c-3.9,2.2-6.9,5.5-7.7,9.4c-0.6,2.8-0.2,5.2,1.3,6.4c1.2,1,2.9,1.2,4.7,0.4C212.1,34.4,213.5,33.4,214.9,32.2 M221.5,16.2
		c-2.1,0.1-4.1,0.5-6,1.1c0.1,4.2,0.7,8.4,1.9,12C219.7,26,221.1,21.5,221.5,16.2 M282.3,32.7c-1.8,4-6.7,7.8-14.9,7v-3.4
		c5.6,0.6,9.9-1.3,11.7-5c1.5-3.2,0.6-6.8-2.3-9.2c-3.7-3.1-10-3.7-15.5-2.7v14.5c0,2.2-0.9,4-2.6,5.1c-1.7,1.1-4,1.3-6.1,0.4
		c-3.3-1.4-5.5-4.2-5.9-7.8c-0.6-4.5,1.6-9.4,5.3-12c1.6-1.2,3.6-2.1,5.8-2.8V10h-11.1V6.8h11.1V1.3h3.5v5.4h11V10h-11v6
		c1.4-0.2,2.8-0.4,4.2-0.4c5.5-0.1,10.3,1.3,13.5,4C283.1,22.9,284.4,28.2,282.3,32.7 M257.8,20.4c-1.4,0.5-2.7,1.2-3.7,1.9
		c-2.7,1.9-4.3,5.6-3.9,8.9c0.2,1.7,1,3.9,3.8,5.1c1,0.4,2.1,0.4,2.8-0.1c0.7-0.4,1-1.2,1-2.2V20.4z M276.7,3.5L274.3,6
		c1.8,1,8.3,6.5,9.9,8.5l2.4-2.5C284.4,9.5,279.2,5,276.7,3.5 M322.4,5.7l-1.1-3.1c-0.2,0-18.6,0.8-25.9,0.5l0,0.5v2.9
		c4.7,0.2,14-0.2,20.1-0.5c-5.7,4-16,10.1-22.3,11l-3,0.2v3.4l16.8-1.1c-1.8,1.3-3.1,2.9-4,4.7c-1.6,3.4-1.2,7,1,10
		c1.6,2.2,4.1,3.8,7.2,4.8c3.2,1,7,1.2,11.2,0.6v-3.4c-7.1,1-13-0.5-15.6-4c-1.4-1.9-1.7-4.3-0.6-6.5c1.7-3.6,6.3-6.1,12.6-7
		l8.6-0.6v-3.4L305,16.3C313.6,12.1,321.9,6.1,322.4,5.7 M551.6,14.3v3.4h12.6v16.4c0,2.2-1.3,2.2-1.9,2.2h-5.2v3.4h5.6
		c1.5,0,2.8-0.5,3.8-1.4c1-1,1.6-2.4,1.6-4.2V17.7h7.2v-3.4H551.6z M529.2,35.3v4.4c-6.6-4.5-12.1-11.7-14.1-18.7H514v13.6
		c2.8-0.7,5.6-1.5,7.1-2.2v3.7c-3.6,1.3-9.7,2.8-13.1,3.4V36c0.7-0.1,1.4-0.3,2.2-0.4V2.1h18.2v19h-9.8c0.6,1.6,1.4,3.3,2.5,5.1
		c1.8-1.2,3.9-2.9,5.5-4.4v4.5c-1.1,0.9-2.3,1.8-3.6,2.7C524.7,31.2,526.8,33.4,529.2,35.3 M514,9.6h10.5V5.5H514V9.6z M524.5,13
		H514v4.7h10.5V13z M506.8,33c0.5-2.2,1.3-6.3,1.6-8.3h-3.5c-0.4,2.4-1.3,6.8-1.7,8.3H506.8z M534.8,22.7v4c1.8-1,3.9-2.4,6-4.2v17
		h3.9V19c2.6-2.6,4.9-5.4,6.3-8h-4.2C544.3,15.3,538.6,20.4,534.8,22.7 M495.2,24.7h-3.5l-0.1,0c0.6,1.8,2,7.8,2.1,9.9h3.5
		C497.1,32.3,495.9,26.9,495.2,24.7 M549.5,1.3h-4.3c-2.1,3.8-7.1,8.6-10.4,10.5l0,4C539.1,13.6,546.9,6.2,549.5,1.3 M574.1,3.6
		h-21.6V7h21.6V3.6z M502.5,34.6c2.1-0.4,4.1-0.8,5.2-1.2v3.3c-3.8,1.2-12.3,2.6-16.3,2.6v-3.4c1.6,0,4.4-0.3,7.3-0.7V22.3h-6.1
		v-3.4h6.1v-4.5h-4.7v-2c-1.1,0.9-2.3,1.6-3.6,2.3v-3.9c3.9-2.5,7.4-6.8,8.8-10.2l3.2-0.1c1.1,2.5,4,5.5,6.9,7.6v4.1
		c-0.5-0.3-1.1-0.7-1.6-1v3.2h-5.2v4.5h6.1v3.4h-6.1V34.6z M507.4,11c-2.3-1.7-4.7-4-6.5-6.3c-1.4,2.2-3.2,4.4-5.3,6.3H507.4z
		 M364.8,5.8c-6-2-17.1-3.6-22.4-4.1l-0.7,3.1c5,0.4,16.8,2,22.4,4.1L364.8,5.8z M461.5,1.3h-3.9v38.3h3.9V18.3
		c4.3,0.8,16.1,4.8,22.7,8.2v-3.9c-6.5-3-17.2-6.6-22.7-8.2V1.3z M423.9,11l-3.7,0c0.7,2.1,2.1,8.3,2.6,11.4h3.6
		C426,19.3,424.6,13.5,423.9,11 M435.5,22.5c-0.4-3.2-1.7-9-2.5-11.5l-3.7,0c0.7,2.1,2.1,8.3,2.6,11.4H435.5z M426.3,35.8
		c0,1.1,0,3.5,0,3.5c16.1-4.7,20.4-15.1,21.7-28.3h-3.5C443.6,24.5,437.7,32.2,426.3,35.8 M400.9,25.1c2,0.7,10.3,5.9,12.1,7.5
		l2-2.9c-2.5-2-9.4-6.4-12.1-7.6L400.9,25.1z M410.9,7.8h-12.2V0.6h-3.9v7.2h-13.5V11h23.9c-4.6,7.5-13.5,14.2-26.8,18.2v3.5
		c1.3-0.3,9-2.4,16.4-6.7v13.6h3.9V23.4C404.9,18.9,409.6,12.6,410.9,7.8"/>
</g>
<rect id="_x3C_スライス_x3E_" class="st2" width="576" height="41"/>
</svg>
